<?xml version="1.0" encoding="UTF-8" standalone="no"?>
<!-- Created with Inkscape (http://www.inkscape.org/) -->

<svg
   width="73.214333mm"
   height="84.540634mm"
   viewBox="0 0 73.214332 84.540635"
   version="1.1"
   id="svg5"
   inkscape:version="1.2.2 (732a01da63, 2022-12-09)"
   sodipodi:docname="logov2 - Copy.svg"
   inkscape:export-filename="logoNewColored.png"
   inkscape:export-xdpi="307.65802"
   inkscape:export-ydpi="307.65802"
   xml:space="preserve"
   xmlns:inkscape="http://www.inkscape.org/namespaces/inkscape"
   xmlns:sodipodi="http://sodipodi.sourceforge.net/DTD/sodipodi-0.dtd"
   xmlns="http://www.w3.org/2000/svg"
   xmlns:svg="http://www.w3.org/2000/svg"><sodipodi:namedview
     id="namedview7"
     pagecolor="#2d2d30"
     bordercolor="#666666"
     borderopacity="1.0"
     inkscape:pageshadow="2"
     inkscape:pageopacity="0"
     inkscape:pagecheckerboard="false"
     inkscape:document-units="mm"
     showgrid="false"
     inkscape:zoom="0.333196"
     inkscape:cx="-162.06677"
     inkscape:cy="129.05317"
     inkscape:window-width="1366"
     inkscape:window-height="697"
     inkscape:window-x="-8"
     inkscape:window-y="-8"
     inkscape:window-maximized="1"
     inkscape:current-layer="layer2"
     inkscape:showpageshadow="2"
     inkscape:deskcolor="#2d2d30" /><defs
     id="defs2"><rect
       id="SVGID_1_"
       x="31.5"
       y="15.978"
       width="289"
       height="130.04401" /><rect
       id="SVGID_3_"
       x="31.5"
       y="15.978"
       width="289"
       height="130.04401" /><style
       id="style15817">.a{fill:#1b75bb;}.b{fill:#3b97bf;}.c{fill:#3b94bd;}.d{fill:#80c5e6;}.e{fill:#57a8cf;}.f{fill:#a0d3eb;}.g{fill:#67b3d6;}.h{fill:#c7e3ef;}.i{fill:#3a9cc7;}.j{fill:#ddeef5;}.k{fill:#8ecae6;}.l{fill:#6db5d6;}.m{fill:#d2e9f2;}.n{fill:#c2e3f2;}.o{fill:#b3dcef;}</style><filter
       style="color-interpolation-filters:sRGB;"
       inkscape:label="Drop Shadow"
       id="filter84735"
       x="-0.13986811"
       y="-0.40721333"
       width="1.396293"
       height="2.1537711"><feFlood
         flood-opacity="0.247059"
         flood-color="rgb(0,0,0)"
         result="flood"
         id="feFlood84725" /><feComposite
         in="flood"
         in2="SourceGraphic"
         operator="in"
         result="composite1"
         id="feComposite84727" /><feGaussianBlur
         in="composite1"
         stdDeviation="3"
         result="blur"
         id="feGaussianBlur84729" /><feOffset
         dx="6"
         dy="6"
         result="offset"
         id="feOffset84731" /><feComposite
         in="SourceGraphic"
         in2="offset"
         operator="over"
         result="composite2"
         id="feComposite84733" /></filter><clipPath
       clipPathUnits="userSpaceOnUse"
       id="clipPath99197"><path
         sodipodi:type="star"
         style="fill:#93bfcf;fill-opacity:0.5;stroke:#ffffff;stroke-width:6.60192;stroke-linecap:round;stroke-miterlimit:4;stroke-dasharray:none;stroke-dashoffset:0;stroke-opacity:0.6"
         id="path99199"
         inkscape:flatsided="true"
         sodipodi:sides="6"
         sodipodi:cx="-985.90485"
         sodipodi:cy="195.15939"
         sodipodi:r1="100.55087"
         sodipodi:r2="87.079605"
         sodipodi:arg1="0.52359878"
         sodipodi:arg2="1.0471976"
         inkscape:rounded="0"
         inkscape:randomized="0"
         transform="matrix(3.3817551,0,0,3.3817551,3577.8611,-428.04374)"
         d="m -898.82524,245.43483 -87.07961,50.27544 -87.07965,-50.27544 0,-100.55087 87.07965,-50.275439 87.07961,50.275439 z" /></clipPath><clipPath
       clipPathUnits="userSpaceOnUse"
       id="clipPath99202"><path
         sodipodi:type="star"
         style="fill:#ffffff;fill-opacity:1;stroke:#ffffff;stroke-width:6.60279;stroke-linecap:round;stroke-miterlimit:4;stroke-dasharray:none;stroke-dashoffset:0;stroke-opacity:1"
         id="path99204"
         inkscape:flatsided="true"
         sodipodi:sides="6"
         sodipodi:cx="-985.90485"
         sodipodi:cy="195.15939"
         sodipodi:r1="100.55087"
         sodipodi:r2="87.079605"
         sodipodi:arg1="0.52359878"
         sodipodi:arg2="1.0471976"
         inkscape:rounded="0"
         inkscape:randomized="0"
         transform="matrix(0.40503359,0,0,0.40503359,412.83843,63.343348)"
         d="m -898.82524,245.43483 -87.07961,50.27544 -87.07965,-50.27544 0,-100.55087 87.07965,-50.275439 87.07961,50.275439 z" /></clipPath></defs><g
     id="g435"
     transform="translate(23.093305,-100.11914)"><g
       inkscape:groupmode="layer"
       id="layer2"
       inkscape:label="Layer 2"><path
         sodipodi:type="star"
         style="fill:#2d3f4c;fill-opacity:1;stroke:#76b6c4;stroke-width:6.60192;stroke-linecap:round;stroke-miterlimit:4;stroke-dasharray:none;stroke-dashoffset:0;stroke-opacity:0.6"
         id="path91988"
         inkscape:flatsided="true"
         sodipodi:sides="6"
         sodipodi:cx="-985.90485"
         sodipodi:cy="195.15939"
         sodipodi:r1="100.55087"
         sodipodi:r2="87.079605"
         sodipodi:arg1="0.52359878"
         sodipodi:arg2="1.0471976"
         inkscape:rounded="0"
         inkscape:randomized="0"
         d="m -898.82524,245.43483 -87.07961,50.27544 -87.07965,-50.27544 0,-100.55087 87.07965,-50.275439 87.07961,50.275439 z"
         transform="matrix(0.40503358,0,0,0.40503358,412.83843,63.343347)" /><g
         id="g15948"
         transform="matrix(0.11977023,0,0,0.11977023,-15.682819,114.61024)"
         style="opacity:1;mix-blend-mode:lighten"
         clip-path="url(#clipPath99197)"><polygon
           class="a"
           points="73.39,276.92 97.59,357.49 109.21,258.48 23.1,237.55 "
           id="polygon15823" /><polygon
           class="a"
           points="209.13,389.72 239.29,477.92 162.9,397.13 97.59,357.49 "
           id="polygon15825" /><polygon
           class="b"
           points="347.31,394.83 274.78,500 281.21,446.72 "
           id="polygon15827" /><polygon
           class="c"
           points="439.07,258.55 323.16,174.06 347.31,291.73 "
           id="polygon15829" /><polygon
           class="a"
           points="439.07,258.55 395.17,150.56 486,195.66 "
           id="polygon15831" /><polygon
           class="a"
           points="347.31,291.73 439.07,258.55 397.97,371.02 "
           id="polygon15833" /><polygon
           class="c"
           points="397.67,371.02 347,291.73 347,394.83 "
           id="polygon15835" /><polygon
           class="d"
           points="274.89,278.83 285.23,342.19 347.31,291.73 323.16,174.06 "
           id="polygon15837" /><polygon
           class="e"
           points="347,394.83 281.06,446.72 285,342.19 347,291.73 "
           id="polygon15839" /><polygon
           class="b"
           points="209.13,389.72 239.29,477.92 285.23,342.19 "
           id="polygon15841" /><polygon
           class="e"
           points="274.78,278.88 97.59,357.49 285.23,342.19 "
           id="polygon15843" /><polygon
           class="f"
           points="219.01,258.55 203.27,207.54 161.65,155.8 265.77,85.18 "
           id="polygon15845" /><polygon
           class="e"
           points="439.07,258.55 395.17,150.56 323.16,174.06 "
           id="polygon15847" /><polygon
           class="c"
           points="274.78,278.88 97.59,357.49 219.01,258.55 "
           id="polygon15849" /><polygon
           class="e"
           points="323.16,174.06 219.01,258.55 265.77,85.18 "
           id="polygon15851" /><polygon
           class="c"
           points="109.21,258.48 23.1,237.55 56.64,155.8 "
           id="polygon15853" /><polygon
           class="g"
           points="203.27,207.54 109.21,258.48 161.65,155.8 "
           id="polygon15855" /><polygon
           class="c"
           points="109.21,258.48 97.59,357.49 203.27,207.54 "
           id="polygon15857" /><polygon
           class="h"
           points="56.64,156 161.65,156 59.69,104.42 7.26,136.17 "
           id="polygon15859" /><polygon
           class="i"
           points="323.16,174.06 219.01,258.55 274.78,278.88 "
           id="polygon15861" /><polygon
           class="d"
           points="285.23,342.19 97.59,357.49 209.13,389.72 "
           id="polygon15863" /><polygon
           class="j"
           points="179.88,69.33 59.69,104.27 150.43,95.28 "
           id="polygon15865" /><polygon
           class="e"
           points="161.65,156 56.64,156 109.21,258.69 "
           id="polygon15867" /><polygon
           class="a"
           points="239.29,477.92 285.23,342.19 281.21,446.72 274.78,500 "
           id="polygon15869"
           style="stroke-width:1.00192;stroke-dasharray:none" /><polygon
           class="d"
           points="97.59,357.49 203.27,207.54 219.01,258.55 "
           id="polygon15871" /><polygon
           class="k"
           points="369.3,92.19 395.17,150.56 265.77,85.18 "
           id="polygon15873" /><polygon
           class="j"
           points="436.5,110.14 395.17,64.41 369.3,92.19 "
           id="polygon15875" /><polygon
           class="l"
           points="395.17,150.56 483.62,141.1 486,195.66 "
           id="polygon15877" /><polygon
           class="e"
           points="395.17,150.56 483.62,141.1 436.5,110.14 "
           id="polygon15879" /><polygon
           class="f"
           points="436.5,110.14 395.17,150.56 369.3,92.19 "
           id="polygon15881" /><polygon
           class="l"
           points="59.69,104.27 150.43,95.28 161.65,155.8 "
           id="polygon15883" /><polygon
           class="h"
           points="150.43,95.28 161.65,155.8 226.13,28.58 "
           id="polygon15885" /><polygon
           class="e"
           points="0,155.8 7.26,136.07 56.64,155.8 23.1,237.55 "
           id="polygon15887" /><polygon
           class="l"
           points="395.17,150.56 323.16,174.06 265.77,85.18 "
           id="polygon15889" /><polygon
           class="f"
           points="369.3,92.19 265.77,85.18 331.88,46.46 "
           id="polygon15891" /><polygon
           class="k"
           points="161.65,155.8 226.13,28.58 265.77,85.18 "
           id="polygon15893" /><polygon
           class="m"
           points="265.77,85.18 226.13,28.58 277.54,0 "
           id="polygon15895" /><polygon
           class="k"
           points="331.88,46.46 277.54,0 265.77,85.18 "
           id="polygon15897" /><polygon
           class="n"
           points="395.17,64.41 331.88,46.46 369.3,92.19 "
           id="polygon15899" /><polygon
           class="o"
           points="277.54,0 265.77,85.18 292.6,12.88 "
           id="polygon15901" /></g><rect
         style="opacity:1;mix-blend-mode:normal;fill:#20beff;fill-opacity:0.23796;stroke:#ffffff;stroke-width:0;stroke-dasharray:none;stroke-opacity:1;paint-order:normal"
         id="rect26519"
         width="91.913849"
         height="51.427303"
         x="-34.250343"
         y="135.55669"
         clip-path="url(#clipPath99202)" /></g><g
       inkscape:label="Layer 1"
       inkscape:groupmode="layer"
       id="layer1" /></g></svg>
