<?xml version="1.0" standalone="no"?>
<!DOCTYPE svg PUBLIC "-//W3C//DTD SVG 20010904//EN"
 "http://www.w3.org/TR/2001/REC-SVG-20010904/DTD/svg10.dtd">
<svg version="1.0" xmlns="http://www.w3.org/2000/svg"
 width="640.000000pt" height="640.000000pt" viewBox="0 0 640.000000 640.000000"
 preserveAspectRatio="xMidYMid meet">
<metadata>
Created by potrace 1.14, written by Peter Selinger 2001-2017
</metadata>
<g transform="translate(0.000000,640.000000) scale(0.100000,-0.100000)"
fill="#000000" stroke="none">
<path d="M2050 5494 c-624 -360 -1200 -692 -1279 -737 l-144 -82 7 -725 c3
-399 6 -1065 6 -1481 l0 -755 1273 -734 c699 -404 1279 -734 1287 -734 8 0
588 330 1288 734 l1272 733 0 756 c0 416 3 1082 6 1481 l7 725 -1280 738
c-704 405 -1287 737 -1294 737 -8 -1 -525 -296 -1149 -656z m1703 -407 c120
-103 228 -193 240 -201 12 -8 147 -49 301 -92 l279 -78 190 -211 191 -210 208
-137 c115 -76 210 -143 212 -150 2 -7 9 -118 15 -246 l12 -233 -215 -289 -215
-288 -186 -508 c-102 -279 -186 -509 -188 -510 -1 -1 -103 -49 -227 -107
l-225 -105 -328 -474 c-180 -260 -334 -472 -341 -472 -8 1 -83 45 -168 97
l-153 96 -344 364 -344 364 -295 179 c-214 130 -297 185 -304 203 -5 14 -54
176 -109 361 -56 184 -109 343 -118 353 -10 10 -114 93 -231 185 l-214 168
-33 114 c-19 63 -65 230 -104 370 l-70 255 33 90 33 90 245 147 245 147 505
146 c278 80 520 151 538 156 19 6 123 89 246 197 l213 187 229 127 c184 101
232 124 244 115 8 -7 113 -96 233 -200z"/>
</g>
</svg>
